<?xml version="1.0" encoding="UTF-8"?>
<svg version="1.1" xmlns="http://www.w3.org/2000/svg" width="48" height="48">
<path d="M0 0 C1.02996094 -0.00128906 2.05992188 -0.00257813 3.12109375 -0.00390625 C4.74724609 0.00189453 4.74724609 0.00189453 6.40625 0.0078125 C7.49035156 0.00394531 8.57445313 0.00007812 9.69140625 -0.00390625 C10.72136719 -0.00261719 11.75132813 -0.00132812 12.8125 0 C14.24045898 0.00169189 14.24045898 0.00169189 15.69726562 0.00341797 C17.90625 0.1328125 17.90625 0.1328125 18.90625 1.1328125 C18.99480161 3.7990728 19.02149673 6.43928364 19.00390625 9.10546875 C19.0024913 9.90311142 19.00107635 10.70075409 18.99961853 11.52256775 C18.99400316 14.08018685 18.98144812 16.63771968 18.96875 19.1953125 C18.96373698 20.92512895 18.95917373 22.65494676 18.95507812 24.38476562 C18.94402875 28.63414803 18.92675386 32.88346562 18.90625 37.1328125 C15.76128444 37.33704307 12.61532202 37.51770112 9.46875 37.6953125 C8.18000977 37.77942383 8.18000977 37.77942383 6.86523438 37.86523438 C-1.97744358 38.34407975 -10.05552376 37.66447287 -19.09375 37.1328125 C-19.09375 25.2528125 -19.09375 13.3728125 -19.09375 1.1328125 C-14.80375 1.1328125 -10.51375 1.1328125 -6.09375 1.1328125 C-4.40858046 -0.55235704 -2.30607212 0.00273231 0 0 Z M-14.09375 7.1328125 C-10.19458218 11.79015184 -6.14804921 16.29331918 -2.03125 20.7578125 C-1.5249707 21.30783936 -1.01869141 21.85786621 -0.49707031 22.42456055 C2.56709689 25.73643287 5.69523864 28.96304349 8.90625 32.1328125 C9.89625 31.8028125 10.88625 31.4728125 11.90625 31.1328125 C13.13145264 28.12433832 13.13145264 28.12433832 13.90625 25.1328125 C7.62420325 20.34487417 1.29749825 15.62476498 -5.15625 11.0703125 C-6.21972656 10.31621094 -7.28320312 9.56210938 -8.37890625 8.78515625 C-10.99117003 6.87285852 -10.99117003 6.87285852 -14.09375 7.1328125 Z M4.90625 8.1328125 C4.90625 8.7928125 4.90625 9.4528125 4.90625 10.1328125 C6.88625 11.1228125 8.86625 12.1128125 10.90625 13.1328125 C10.90625 11.4828125 10.90625 9.8328125 10.90625 8.1328125 C7.85711772 7.12170157 7.85711772 7.12170157 4.90625 8.1328125 Z M-12.09375 24.1328125 C-12.75375 25.7828125 -13.41375 27.4328125 -14.09375 29.1328125 C-12.19619856 31.48255068 -12.19619856 31.48255068 -8.96875 31.2578125 C-8.02 31.2165625 -7.07125 31.1753125 -6.09375 31.1328125 C-7.48707574 27.76560863 -9.0726786 26.1468601 -12.09375 24.1328125 Z " fill="#E23744" transform="translate(24.09375,4.8671875)"/>
</svg>
